<svg id="Layer_1" enable-background="new 0 0 512 512" height="512" viewBox="0 0 512 512" width="512" xmlns="http://www.w3.org/2000/svg"><path d="m497 224.933h-274.2v-113.533c0-61.426-49.974-111.4-111.4-111.4-61.528 0-111.4 49.781-111.4 111.4 0 0 0 257.083 0 257.07 0-.004 0 .009 0 .013 0 79.136 64.382 143.517 143.518 143.517h353.482c8.284 0 15-6.716 15-15v-257.067c0-8.284-6.716-15-15-15zm-467-113.533c0-44.952 36.369-81.4 81.4-81.4 44.884 0 81.4 36.516 81.4 81.4v181.092c-20.349-21.784-49.319-35.425-81.416-35.425-1.536 0-46.132-2.323-81.384 35.335zm81.4 239.933c9.447 0 17.133 7.686 17.133 17.133 0 8.284 6.716 15 15 15s15-6.716 15-15v-66.363c36.145 25.787 34.267 65.292 34.267 66.363 0 27.166-22.101 49.267-49.267 49.267s-49.267-22.101-49.267-49.267c.001-9.464 7.659-17.133 17.134-17.133zm-17.133-26.788v-35.664c5.57-1.187 11.301-1.814 17.133-1.814 5.831 0 11.562.628 17.133 1.816v35.688c-5.315-2.082-11.09-3.238-17.133-3.238-5.959 0-11.743 1.112-17.133 3.212zm387.733 157.455h-338.482c-62.594 0-113.518-50.924-113.518-113.549 0-1.076-1.872-40.575 34.267-66.353v66.369c0 43.708 35.559 79.267 79.267 79.267s79.267-35.559 79.267-79.267v-113.534h259.199z"/></svg>