<svg id="Capa_1" enable-background="new 0 0 512 512" height="512" viewBox="0 0 512 512" width="512" xmlns="http://www.w3.org/2000/svg"><g><path d="m496.008 87.781h-392.234c-8.284 0-15 6.716-15 15v394.219c0 8.284 6.716 15 15 15h392.234c8.284 0 15-6.716 15-15v-394.219c0-8.284-6.716-15-15-15z" fill="#0092bf"/><path d="m103.774 0c-56.674 0-102.782 46.107-102.782 102.781v306.438c0 56.674 46.108 102.781 102.782 102.781s102.781-46.107 102.781-102.781v-306.438c0-56.674-46.107-102.781-102.781-102.781z" fill="#95fff7"/><path d="m103.774 0v512c56.674 0 102.781-46.107 102.781-102.781v-306.438c0-56.674-46.107-102.781-102.781-102.781z" fill="#4fdae1"/><path d="m103.774 391.437c-9.805 0-17.782 7.977-17.782 17.782s7.977 17.781 17.782 17.781 17.781-7.977 17.781-17.781-7.976-17.782-17.781-17.782z" fill="#4fdae1"/><path d="m121.555 409.219c0-9.805-7.977-17.782-17.781-17.782v35.563c9.805 0 17.781-7.977 17.781-17.781z" fill="#16aac8"/><path d="m103.774 306.437c-56.674 0-102.782 46.108-102.782 102.782s46.108 102.781 102.782 102.781 102.781-46.107 102.781-102.781-46.107-102.782-102.781-102.782zm0 150.563c-26.347 0-47.782-21.435-47.782-47.781 0-26.347 21.435-47.782 47.782-47.782s47.781 21.435 47.781 47.782c0 26.346-21.434 47.781-47.781 47.781z" fill="#4fdae1"/><path d="m103.774 306.437v55c26.347 0 47.781 21.435 47.781 47.782s-21.435 47.781-47.781 47.781v55c56.674 0 102.781-46.107 102.781-102.781s-46.107-102.782-102.781-102.782z" fill="#16aac8"/></g></svg>