<svg id="Layer_1" enable-background="new 0 0 512 512" height="512" viewBox="0 0 512 512" width="512" xmlns="http://www.w3.org/2000/svg"><g><path d="m497 224.933h-274.2-192.8c-8.284 0-15 6.716-15 15v128.534c0 70.987 57.546 128.533 128.533 128.533h368.467v-257.067c0-8.284-6.716-15-15-15z" fill="#5fe1ba"/><path d="m512 497v-257.067c0-8.284-6.716-15-15-15h-274.2-111.4v268.017c10.27 2.644 21.038 4.05 32.133 4.05z" fill="#00c9c1"/><path d="m143.533 224.933h-64.266c-8.284 0-15 6.716-15 15v128.219c0 4.107 3.164 7.688 7.269 7.811 4.247.128 7.731-3.278 7.731-7.497 0-17.747 14.386-32.133 32.133-32.133 17.653 0 31.982 14.235 32.132 31.853.035 4.051 3.107 7.59 7.154 7.772 4.3.194 7.847-3.235 7.847-7.492v-128.533c0-8.284-6.715-15-15-15z" fill="#d8ffc9"/><path d="m222.8 111.4c0-61.524-49.876-111.4-111.4-111.4s-111.4 49.876-111.4 111.4v257.083c0 4.142 3.358 7.5 7.5 7.5s7.5-3.358 7.5-7.5c0-.005-.001-.011-.001-.016h.001c0-53.24 43.16-96.4 96.4-96.4s96.4 43.16 96.4 96.4c0 4.142 3.358 7.5 7.5 7.5s7.5-3.358 7.5-7.5c0-.001 0-257.067 0-257.067z" fill="#d8ffc9"/><path d="m143.532 368.187c.035 4.051 3.107 7.59 7.154 7.772 4.3.194 7.847-3.235 7.847-7.492v-128.534c0-8.284-6.716-15-15-15h-32.133v111.4c17.653.001 31.982 14.236 32.132 31.854z" fill="#98f1be"/><path d="m207.8 368.467c0 4.142 3.358 7.5 7.5 7.5s7.5-3.358 7.5-7.5v-257.067c0-61.524-49.876-111.4-111.4-111.4v272.067c53.24 0 96.4 43.16 96.4 96.4z" fill="#98f1be"/><path d="m497 482h-353.482c-62.594 0-113.518-50.924-113.518-113.549 0-44.948 36.363-81.384 81.4-81.384 44.956 0 81.4 36.368 81.4 81.4 0 27.166-22.101 49.267-49.267 49.267s-49.267-22.101-49.267-49.267c0-9.465 7.658-17.133 17.133-17.133 9.447 0 17.133 7.686 17.133 17.133 0 8.284 6.716 15 15 15s15-6.716 15-15c0-25.989-21.144-47.133-47.133-47.133-26.031 0-47.133 21.059-47.133 47.133 0 43.708 35.559 79.267 79.267 79.267s79.267-35.559 79.267-79.267c0-61.529-49.773-111.4-111.416-111.4-61.524 0-111.384 49.768-111.384 111.416 0 79.136 64.382 143.517 143.518 143.517h353.482c8.284 0 15-6.716 15-15s-6.716-15-15-15z" fill="#98f1be"/><g fill="#5fe1ba"><path d="m192.8 368.467c0 27.166-22.101 49.267-49.267 49.267-12.271 0-23.499-4.52-32.133-11.969v35.137c9.829 4.378 20.697 6.832 32.133 6.832 43.708 0 79.267-35.559 79.267-79.267 0-61.523-49.764-111.391-111.4-111.4v30c44.956 0 81.4 36.368 81.4 81.4z"/><path d="m128.533 368.467c0 8.284 6.716 15 15 15s15-6.716 15-15c0-25.989-21.144-47.133-47.133-47.133v30c9.447 0 17.133 7.686 17.133 17.133z"/><path d="m497 512c8.284 0 15-6.716 15-15s-6.716-15-15-15h-353.482c-11.151 0-21.929-1.624-32.118-4.635v31.009c10.329 2.371 21.079 3.626 32.118 3.626z"/></g></g></svg>